<mxfile host="app.diagrams.net" modified="2023-12-12T22:25:07.341Z" agent="Mozilla/5.0 (Macintosh; Intel Mac OS X 10_15_7) AppleWebKit/537.36 (KHTML, like Gecko) Chrome/119.0.0.0 Safari/537.36" etag="jkxIRmgnQu0pGWjjHqP_" version="22.1.8" type="google">
  <diagram name="Page-1" id="gRx433m1PyFaqhX7CzjU">
    <mxGraphModel grid="1" page="1" gridSize="10" guides="1" tooltips="1" connect="1" arrows="1" fold="1" pageScale="1" pageWidth="827" pageHeight="1169" math="0" shadow="0">
      <root>
        <mxCell id="0" />
        <mxCell id="1" parent="0" />
        <mxCell id="r5afqF_2VH9w-gvQckAL-1" value="User" style="rounded=1;whiteSpace=wrap;html=1;fillColor=#dae8fc;strokeColor=#6c8ebf;" vertex="1" parent="1">
          <mxGeometry x="620" y="-260" width="170" height="90" as="geometry" />
        </mxCell>
        <mxCell id="r5afqF_2VH9w-gvQckAL-2" value="Group" style="rounded=1;whiteSpace=wrap;html=1;fillColor=#f8cecc;strokeColor=#b85450;" vertex="1" parent="1">
          <mxGeometry x="180" y="162.25" width="120" height="60" as="geometry" />
        </mxCell>
        <mxCell id="r5afqF_2VH9w-gvQckAL-3" value="Interest area" style="rounded=1;whiteSpace=wrap;html=1;fillColor=#dae8fc;strokeColor=#6c8ebf;" vertex="1" parent="1">
          <mxGeometry x="200" y="-260" width="170" height="90" as="geometry" />
        </mxCell>
        <mxCell id="r5afqF_2VH9w-gvQckAL-5" value="Post" style="rounded=1;whiteSpace=wrap;html=1;fillColor=#f8cecc;strokeColor=#b85450;" vertex="1" parent="1">
          <mxGeometry x="414" y="162.25" width="120" height="60" as="geometry" />
        </mxCell>
        <mxCell id="r5afqF_2VH9w-gvQckAL-6" value="Comment" style="rounded=1;whiteSpace=wrap;html=1;fillColor=#f8cecc;strokeColor=#b85450;" vertex="1" parent="1">
          <mxGeometry x="620" y="162.25" width="120" height="60" as="geometry" />
        </mxCell>
        <mxCell id="r5afqF_2VH9w-gvQckAL-72" style="edgeStyle=none;shape=connector;rounded=0;orthogonalLoop=1;jettySize=auto;html=1;exitX=0.5;exitY=1;exitDx=0;exitDy=0;labelBackgroundColor=default;strokeColor=default;align=center;verticalAlign=middle;fontFamily=Helvetica;fontSize=11;fontColor=default;endArrow=none;entryX=0.5;entryY=1;entryDx=0;entryDy=0;endFill=0;" edge="1" parent="1" source="r5afqF_2VH9w-gvQckAL-11" target="r5afqF_2VH9w-gvQckAL-2">
          <mxGeometry relative="1" as="geometry">
            <mxPoint x="991.3799999999997" y="222.25" as="targetPoint" />
            <Array as="points">
              <mxPoint x="-150" y="320" />
              <mxPoint x="240" y="320" />
            </Array>
          </mxGeometry>
        </mxCell>
        <mxCell id="aup3erUd33jb3YnkskkR-1" value="1..*" style="edgeLabel;html=1;align=center;verticalAlign=middle;resizable=0;points=[];" connectable="0" vertex="1" parent="r5afqF_2VH9w-gvQckAL-72">
          <mxGeometry x="-0.9558" y="3" relative="1" as="geometry">
            <mxPoint x="-1" as="offset" />
          </mxGeometry>
        </mxCell>
        <mxCell id="aup3erUd33jb3YnkskkR-2" value="1..*" style="edgeLabel;html=1;align=center;verticalAlign=middle;resizable=0;points=[];" connectable="0" vertex="1" parent="r5afqF_2VH9w-gvQckAL-72">
          <mxGeometry x="0.9663" y="-1" relative="1" as="geometry">
            <mxPoint as="offset" />
          </mxGeometry>
        </mxCell>
        <mxCell id="r5afqF_2VH9w-gvQckAL-11" value="Wallet" style="rounded=1;whiteSpace=wrap;html=1;fillColor=#f8cecc;strokeColor=#b85450;" vertex="1" parent="1">
          <mxGeometry x="-210" y="160" width="120" height="60" as="geometry" />
        </mxCell>
        <mxCell id="r5afqF_2VH9w-gvQckAL-22" value="" style="endArrow=none;html=1;rounded=0;labelBackgroundColor=default;strokeColor=default;align=center;verticalAlign=middle;fontFamily=Helvetica;fontSize=11;fontColor=default;shape=connector;entryX=0.25;entryY=1;entryDx=0;entryDy=0;exitX=0.5;exitY=0;exitDx=0;exitDy=0;" edge="1" parent="1" source="r5afqF_2VH9w-gvQckAL-5" target="r5afqF_2VH9w-gvQckAL-1">
          <mxGeometry width="50" height="50" relative="1" as="geometry">
            <mxPoint x="320" y="360" as="sourcePoint" />
            <mxPoint x="370" y="310" as="targetPoint" />
          </mxGeometry>
        </mxCell>
        <mxCell id="r5afqF_2VH9w-gvQckAL-39" value="1" style="edgeLabel;html=1;align=center;verticalAlign=middle;resizable=0;points=[];fontSize=11;fontFamily=Helvetica;fontColor=default;" vertex="1" connectable="0" parent="r5afqF_2VH9w-gvQckAL-22">
          <mxGeometry x="0.7184" y="-1" relative="1" as="geometry">
            <mxPoint as="offset" />
          </mxGeometry>
        </mxCell>
        <mxCell id="r5afqF_2VH9w-gvQckAL-40" value="0..*" style="edgeLabel;html=1;align=center;verticalAlign=middle;resizable=0;points=[];fontSize=11;fontFamily=Helvetica;fontColor=default;" vertex="1" connectable="0" parent="r5afqF_2VH9w-gvQckAL-22">
          <mxGeometry x="-0.6815" y="2" relative="1" as="geometry">
            <mxPoint as="offset" />
          </mxGeometry>
        </mxCell>
        <mxCell id="r5afqF_2VH9w-gvQckAL-25" value="" style="endArrow=none;html=1;rounded=0;labelBackgroundColor=default;strokeColor=default;align=center;verticalAlign=middle;fontFamily=Helvetica;fontSize=11;fontColor=default;shape=connector;entryX=0.003;entryY=0.184;entryDx=0;entryDy=0;entryPerimeter=0;exitX=1;exitY=0.5;exitDx=0;exitDy=0;" edge="1" parent="1" source="r5afqF_2VH9w-gvQckAL-3" target="r5afqF_2VH9w-gvQckAL-1">
          <mxGeometry width="50" height="50" relative="1" as="geometry">
            <mxPoint x="300" y="-105" as="sourcePoint" />
            <mxPoint x="414" y="55" as="targetPoint" />
          </mxGeometry>
        </mxCell>
        <mxCell id="hdWWQr3qdk0DNlpQKFXK-1" value="0...*" style="edgeLabel;html=1;align=center;verticalAlign=middle;resizable=0;points=[];" connectable="0" vertex="1" parent="r5afqF_2VH9w-gvQckAL-25">
          <mxGeometry x="-0.8438" y="-4" relative="1" as="geometry">
            <mxPoint y="-1" as="offset" />
          </mxGeometry>
        </mxCell>
        <mxCell id="hdWWQr3qdk0DNlpQKFXK-2" value="0..*" style="edgeLabel;html=1;align=center;verticalAlign=middle;resizable=0;points=[];" connectable="0" vertex="1" parent="r5afqF_2VH9w-gvQckAL-25">
          <mxGeometry x="0.494" y="2" relative="1" as="geometry">
            <mxPoint as="offset" />
          </mxGeometry>
        </mxCell>
        <mxCell id="r5afqF_2VH9w-gvQckAL-28" value="" style="endArrow=none;html=1;rounded=0;labelBackgroundColor=default;strokeColor=default;align=center;verticalAlign=middle;fontFamily=Helvetica;fontSize=11;fontColor=default;shape=connector;entryX=1;entryY=0.5;entryDx=0;entryDy=0;exitX=0.003;exitY=0.332;exitDx=0;exitDy=0;exitPerimeter=0;" edge="1" parent="1" source="r5afqF_2VH9w-gvQckAL-1" target="r5afqF_2VH9w-gvQckAL-11">
          <mxGeometry width="50" height="50" relative="1" as="geometry">
            <mxPoint x="670" y="80" as="sourcePoint" />
            <mxPoint x="696" y="-10" as="targetPoint" />
          </mxGeometry>
        </mxCell>
        <mxCell id="r5afqF_2VH9w-gvQckAL-55" value="1" style="edgeLabel;html=1;align=center;verticalAlign=middle;resizable=0;points=[];fontSize=11;fontFamily=Helvetica;fontColor=default;" vertex="1" connectable="0" parent="r5afqF_2VH9w-gvQckAL-28">
          <mxGeometry x="-0.8619" y="-4" relative="1" as="geometry">
            <mxPoint as="offset" />
          </mxGeometry>
        </mxCell>
        <mxCell id="r5afqF_2VH9w-gvQckAL-56" value="1" style="edgeLabel;html=1;align=center;verticalAlign=middle;resizable=0;points=[];fontSize=11;fontFamily=Helvetica;fontColor=default;" vertex="1" connectable="0" parent="r5afqF_2VH9w-gvQckAL-28">
          <mxGeometry x="0.9251" y="-2" relative="1" as="geometry">
            <mxPoint as="offset" />
          </mxGeometry>
        </mxCell>
        <mxCell id="r5afqF_2VH9w-gvQckAL-29" value="" style="endArrow=none;html=1;rounded=0;labelBackgroundColor=default;strokeColor=default;align=center;verticalAlign=middle;fontFamily=Helvetica;fontSize=11;fontColor=default;shape=connector;entryX=0.5;entryY=1;entryDx=0;entryDy=0;exitX=0.5;exitY=0;exitDx=0;exitDy=0;" edge="1" parent="1" source="r5afqF_2VH9w-gvQckAL-6" target="r5afqF_2VH9w-gvQckAL-1">
          <mxGeometry width="50" height="50" relative="1" as="geometry">
            <mxPoint x="490" y="220" as="sourcePoint" />
            <mxPoint x="414" y="100" as="targetPoint" />
          </mxGeometry>
        </mxCell>
        <mxCell id="r5afqF_2VH9w-gvQckAL-43" value="1" style="edgeLabel;html=1;align=center;verticalAlign=middle;resizable=0;points=[];fontSize=11;fontFamily=Helvetica;fontColor=default;" vertex="1" connectable="0" parent="r5afqF_2VH9w-gvQckAL-29">
          <mxGeometry x="0.8714" relative="1" as="geometry">
            <mxPoint as="offset" />
          </mxGeometry>
        </mxCell>
        <mxCell id="hdWWQr3qdk0DNlpQKFXK-14" value="0..*" style="edgeLabel;html=1;align=center;verticalAlign=middle;resizable=0;points=[];" connectable="0" vertex="1" parent="r5afqF_2VH9w-gvQckAL-29">
          <mxGeometry x="-0.7604" y="2" relative="1" as="geometry">
            <mxPoint y="1" as="offset" />
          </mxGeometry>
        </mxCell>
        <mxCell id="r5afqF_2VH9w-gvQckAL-30" value="" style="endArrow=none;html=1;rounded=0;labelBackgroundColor=default;strokeColor=default;align=center;verticalAlign=middle;fontFamily=Helvetica;fontSize=11;fontColor=default;shape=connector;entryX=1;entryY=0.5;entryDx=0;entryDy=0;exitX=0;exitY=0.5;exitDx=0;exitDy=0;" edge="1" parent="1" source="r5afqF_2VH9w-gvQckAL-6" target="r5afqF_2VH9w-gvQckAL-5">
          <mxGeometry width="50" height="50" relative="1" as="geometry">
            <mxPoint x="330" y="250" as="sourcePoint" />
            <mxPoint x="356" y="230" as="targetPoint" />
          </mxGeometry>
        </mxCell>
        <mxCell id="r5afqF_2VH9w-gvQckAL-37" value="0..*" style="edgeLabel;html=1;align=center;verticalAlign=middle;resizable=0;points=[];fontSize=11;fontFamily=Helvetica;fontColor=default;" vertex="1" connectable="0" parent="r5afqF_2VH9w-gvQckAL-30">
          <mxGeometry x="-0.6726" y="-1" relative="1" as="geometry">
            <mxPoint x="2" y="-1" as="offset" />
          </mxGeometry>
        </mxCell>
        <mxCell id="r5afqF_2VH9w-gvQckAL-38" value="1" style="edgeLabel;html=1;align=center;verticalAlign=middle;resizable=0;points=[];fontSize=11;fontFamily=Helvetica;fontColor=default;" vertex="1" connectable="0" parent="r5afqF_2VH9w-gvQckAL-30">
          <mxGeometry x="0.7458" y="2" relative="1" as="geometry">
            <mxPoint as="offset" />
          </mxGeometry>
        </mxCell>
        <mxCell id="r5afqF_2VH9w-gvQckAL-31" value="" style="endArrow=none;html=1;rounded=0;labelBackgroundColor=default;strokeColor=default;align=center;verticalAlign=middle;fontFamily=Helvetica;fontSize=11;fontColor=default;shape=connector;entryX=0;entryY=0.75;entryDx=0;entryDy=0;exitX=1;exitY=0.75;exitDx=0;exitDy=0;" edge="1" parent="1">
          <mxGeometry width="50" height="50" relative="1" as="geometry">
            <mxPoint x="300" y="200.00000000000023" as="sourcePoint" />
            <mxPoint x="413.9999999999998" y="200.00000000000023" as="targetPoint" />
          </mxGeometry>
        </mxCell>
        <mxCell id="r5afqF_2VH9w-gvQckAL-35" value="0..*" style="edgeLabel;html=1;align=center;verticalAlign=middle;resizable=0;points=[];fontSize=11;fontFamily=Helvetica;fontColor=default;" vertex="1" connectable="0" parent="r5afqF_2VH9w-gvQckAL-31">
          <mxGeometry x="0.7424" y="2" relative="1" as="geometry">
            <mxPoint as="offset" />
          </mxGeometry>
        </mxCell>
        <mxCell id="r5afqF_2VH9w-gvQckAL-36" value="1" style="edgeLabel;html=1;align=center;verticalAlign=middle;resizable=0;points=[];fontSize=11;fontFamily=Helvetica;fontColor=default;" vertex="1" connectable="0" parent="r5afqF_2VH9w-gvQckAL-31">
          <mxGeometry x="-0.5809" relative="1" as="geometry">
            <mxPoint as="offset" />
          </mxGeometry>
        </mxCell>
        <mxCell id="r5afqF_2VH9w-gvQckAL-32" value="" style="endArrow=none;html=1;rounded=0;labelBackgroundColor=default;strokeColor=default;align=center;verticalAlign=middle;fontFamily=Helvetica;fontSize=11;fontColor=default;shape=connector;entryX=0;entryY=1;entryDx=0;entryDy=0;exitX=1;exitY=0.5;exitDx=0;exitDy=0;" edge="1" parent="1" source="r5afqF_2VH9w-gvQckAL-2" target="r5afqF_2VH9w-gvQckAL-1">
          <mxGeometry width="50" height="50" relative="1" as="geometry">
            <mxPoint x="520" y="280" as="sourcePoint" />
            <mxPoint x="546" y="190" as="targetPoint" />
          </mxGeometry>
        </mxCell>
        <mxCell id="r5afqF_2VH9w-gvQckAL-33" value="1..*" style="edgeLabel;html=1;align=center;verticalAlign=middle;resizable=0;points=[];fontSize=11;fontFamily=Helvetica;fontColor=default;" vertex="1" connectable="0" parent="r5afqF_2VH9w-gvQckAL-32">
          <mxGeometry x="0.8414" y="-1" relative="1" as="geometry">
            <mxPoint as="offset" />
          </mxGeometry>
        </mxCell>
        <mxCell id="r5afqF_2VH9w-gvQckAL-34" value="0..*" style="edgeLabel;html=1;align=center;verticalAlign=middle;resizable=0;points=[];fontSize=11;fontFamily=Helvetica;fontColor=default;" vertex="1" connectable="0" parent="r5afqF_2VH9w-gvQckAL-32">
          <mxGeometry x="-0.8825" relative="1" as="geometry">
            <mxPoint as="offset" />
          </mxGeometry>
        </mxCell>
        <mxCell id="r5afqF_2VH9w-gvQckAL-80" value="part of / creates" style="edgeLabel;html=1;align=center;verticalAlign=middle;resizable=0;points=[];fontSize=11;fontFamily=Helvetica;fontColor=default;rotation=-50;" connectable="0" vertex="1" parent="r5afqF_2VH9w-gvQckAL-32">
          <mxGeometry x="0.015" y="4" relative="1" as="geometry">
            <mxPoint x="-19" y="4" as="offset" />
          </mxGeometry>
        </mxCell>
        <mxCell id="r5afqF_2VH9w-gvQckAL-48" value="Upvotes/Downvotes" style="rounded=1;whiteSpace=wrap;html=1;fillColor=#f8cecc;strokeColor=#b85450;" vertex="1" parent="1">
          <mxGeometry x="-10" y="160" width="130" height="60" as="geometry" />
        </mxCell>
        <mxCell id="r5afqF_2VH9w-gvQckAL-49" value="" style="endArrow=none;html=1;rounded=0;labelBackgroundColor=default;strokeColor=default;align=center;verticalAlign=middle;fontFamily=Helvetica;fontSize=11;fontColor=default;shape=connector;entryX=0.5;entryY=1;entryDx=0;entryDy=0;exitX=0.436;exitY=0.996;exitDx=0;exitDy=0;exitPerimeter=0;" edge="1" parent="1" source="r5afqF_2VH9w-gvQckAL-6" target="r5afqF_2VH9w-gvQckAL-48">
          <mxGeometry width="50" height="50" relative="1" as="geometry">
            <mxPoint x="640" y="250" as="sourcePoint" />
            <mxPoint x="380" y="230" as="targetPoint" />
            <Array as="points">
              <mxPoint x="654" y="280" />
              <mxPoint x="55" y="280" />
            </Array>
          </mxGeometry>
        </mxCell>
        <mxCell id="r5afqF_2VH9w-gvQckAL-50" value="1" style="edgeLabel;html=1;align=center;verticalAlign=middle;resizable=0;points=[];fontSize=11;fontFamily=Helvetica;fontColor=default;" vertex="1" connectable="0" parent="r5afqF_2VH9w-gvQckAL-49">
          <mxGeometry x="-0.6726" y="-1" relative="1" as="geometry">
            <mxPoint x="2" y="-1" as="offset" />
          </mxGeometry>
        </mxCell>
        <mxCell id="r5afqF_2VH9w-gvQckAL-51" value="0..*" style="edgeLabel;html=1;align=center;verticalAlign=middle;resizable=0;points=[];fontSize=11;fontFamily=Helvetica;fontColor=default;" vertex="1" connectable="0" parent="r5afqF_2VH9w-gvQckAL-49">
          <mxGeometry x="0.7458" y="2" relative="1" as="geometry">
            <mxPoint y="-10" as="offset" />
          </mxGeometry>
        </mxCell>
        <mxCell id="r5afqF_2VH9w-gvQckAL-52" value="" style="endArrow=none;html=1;rounded=0;labelBackgroundColor=default;strokeColor=default;align=center;verticalAlign=middle;fontFamily=Helvetica;fontSize=11;fontColor=default;shape=connector;exitX=1;exitY=0.25;exitDx=0;exitDy=0;entryX=-0.007;entryY=0.618;entryDx=0;entryDy=0;entryPerimeter=0;" edge="1" parent="1" source="r5afqF_2VH9w-gvQckAL-48" target="r5afqF_2VH9w-gvQckAL-1">
          <mxGeometry width="50" height="50" relative="1" as="geometry">
            <mxPoint x="350" y="240" as="sourcePoint" />
            <mxPoint x="400" y="190" as="targetPoint" />
            <Array as="points" />
          </mxGeometry>
        </mxCell>
        <mxCell id="r5afqF_2VH9w-gvQckAL-53" value="0..*" style="edgeLabel;html=1;align=center;verticalAlign=middle;resizable=0;points=[];fontSize=11;fontFamily=Helvetica;fontColor=default;" vertex="1" connectable="0" parent="r5afqF_2VH9w-gvQckAL-52">
          <mxGeometry x="-0.8677" y="-2" relative="1" as="geometry">
            <mxPoint as="offset" />
          </mxGeometry>
        </mxCell>
        <mxCell id="r5afqF_2VH9w-gvQckAL-54" value="1" style="edgeLabel;html=1;align=center;verticalAlign=middle;resizable=0;points=[];fontSize=11;fontFamily=Helvetica;fontColor=default;" vertex="1" connectable="0" parent="r5afqF_2VH9w-gvQckAL-52">
          <mxGeometry x="0.9374" relative="1" as="geometry">
            <mxPoint as="offset" />
          </mxGeometry>
        </mxCell>
        <mxCell id="r5afqF_2VH9w-gvQckAL-58" value="" style="endArrow=none;html=1;rounded=0;labelBackgroundColor=default;strokeColor=default;align=center;verticalAlign=middle;fontFamily=Helvetica;fontSize=11;fontColor=default;shape=connector;entryX=1;entryY=0.75;entryDx=0;entryDy=0;exitX=0;exitY=0.75;exitDx=0;exitDy=0;" edge="1" parent="1" source="r5afqF_2VH9w-gvQckAL-48" target="r5afqF_2VH9w-gvQckAL-11">
          <mxGeometry width="50" height="50" relative="1" as="geometry">
            <mxPoint x="-30" y="200" as="sourcePoint" />
            <mxPoint x="450" y="220" as="targetPoint" />
            <Array as="points" />
          </mxGeometry>
        </mxCell>
        <mxCell id="r5afqF_2VH9w-gvQckAL-59" value="1" style="edgeLabel;html=1;align=center;verticalAlign=middle;resizable=0;points=[];fontSize=11;fontFamily=Helvetica;fontColor=default;" vertex="1" connectable="0" parent="r5afqF_2VH9w-gvQckAL-58">
          <mxGeometry x="0.932" y="1" relative="1" as="geometry">
            <mxPoint y="-1" as="offset" />
          </mxGeometry>
        </mxCell>
        <mxCell id="r5afqF_2VH9w-gvQckAL-60" value="0..*" style="edgeLabel;html=1;align=center;verticalAlign=middle;resizable=0;points=[];fontSize=11;fontFamily=Helvetica;fontColor=default;" vertex="1" connectable="0" parent="r5afqF_2VH9w-gvQckAL-58">
          <mxGeometry x="-0.942" y="1" relative="1" as="geometry">
            <mxPoint x="-11" y="-1" as="offset" />
          </mxGeometry>
        </mxCell>
        <mxCell id="hdWWQr3qdk0DNlpQKFXK-7" value="" style="endArrow=none;html=1;rounded=0;labelBackgroundColor=default;strokeColor=default;align=center;verticalAlign=middle;fontFamily=Helvetica;fontSize=11;fontColor=default;shape=connector;exitX=0.5;exitY=1;exitDx=0;exitDy=0;entryX=0.373;entryY=0.01;entryDx=0;entryDy=0;entryPerimeter=0;" edge="1" parent="1" source="r5afqF_2VH9w-gvQckAL-3" target="r5afqF_2VH9w-gvQckAL-2">
          <mxGeometry width="50" height="50" relative="1" as="geometry">
            <mxPoint x="270" y="-225" as="sourcePoint" />
            <mxPoint x="370" y="-230" as="targetPoint" />
            <Array as="points" />
          </mxGeometry>
        </mxCell>
        <mxCell id="hdWWQr3qdk0DNlpQKFXK-8" value="1" style="edgeLabel;html=1;align=center;verticalAlign=middle;resizable=0;points=[];" connectable="0" vertex="1" parent="hdWWQr3qdk0DNlpQKFXK-7">
          <mxGeometry x="-0.8438" y="-4" relative="1" as="geometry">
            <mxPoint y="-1" as="offset" />
          </mxGeometry>
        </mxCell>
        <mxCell id="hdWWQr3qdk0DNlpQKFXK-9" value="0..*" style="edgeLabel;html=1;align=center;verticalAlign=middle;resizable=0;points=[];" connectable="0" vertex="1" parent="hdWWQr3qdk0DNlpQKFXK-7">
          <mxGeometry x="0.494" y="2" relative="1" as="geometry">
            <mxPoint as="offset" />
          </mxGeometry>
        </mxCell>
        <mxCell id="r5afqF_2VH9w-gvQckAL-63" value="accesses" style="text;html=1;strokeColor=none;fillColor=none;align=center;verticalAlign=middle;whiteSpace=wrap;rounded=0;fontSize=11;fontFamily=Helvetica;fontColor=default;rotation=-30;" vertex="1" parent="1">
          <mxGeometry x="340" y="-120" width="60" height="30" as="geometry" />
        </mxCell>
        <mxCell id="r5afqF_2VH9w-gvQckAL-64" value="" style="endArrow=classic;html=1;rounded=0;labelBackgroundColor=default;strokeColor=default;align=center;verticalAlign=middle;fontFamily=Helvetica;fontSize=11;fontColor=default;shape=connector;" edge="1" parent="1">
          <mxGeometry width="50" height="50" relative="1" as="geometry">
            <mxPoint x="344" y="-88" as="sourcePoint" />
            <mxPoint x="314" y="-68" as="targetPoint" />
          </mxGeometry>
        </mxCell>
        <mxCell id="r5afqF_2VH9w-gvQckAL-65" value="receives" style="text;html=1;strokeColor=none;fillColor=none;align=center;verticalAlign=middle;whiteSpace=wrap;rounded=0;fontSize=11;fontFamily=Helvetica;fontColor=default;rotation=-30;" vertex="1" parent="1">
          <mxGeometry x="320" y="-40" width="60" height="30" as="geometry" />
        </mxCell>
        <mxCell id="r5afqF_2VH9w-gvQckAL-66" value="provides" style="text;html=1;strokeColor=none;fillColor=none;align=center;verticalAlign=middle;whiteSpace=wrap;rounded=0;fontSize=11;fontFamily=Helvetica;fontColor=default;rotation=-45;" vertex="1" parent="1">
          <mxGeometry x="340" y="-10" width="60" height="30" as="geometry" />
        </mxCell>
        <mxCell id="r5afqF_2VH9w-gvQckAL-67" value="" style="endArrow=classic;html=1;rounded=0;labelBackgroundColor=default;strokeColor=default;align=center;verticalAlign=middle;fontFamily=Helvetica;fontSize=11;fontColor=default;shape=connector;" edge="1" parent="1">
          <mxGeometry width="50" height="50" relative="1" as="geometry">
            <mxPoint x="352" y="23" as="sourcePoint" />
            <mxPoint x="322" y="43" as="targetPoint" />
          </mxGeometry>
        </mxCell>
        <mxCell id="r5afqF_2VH9w-gvQckAL-69" value="" style="endArrow=classic;html=1;rounded=0;labelBackgroundColor=default;strokeColor=default;align=center;verticalAlign=middle;fontFamily=Helvetica;fontSize=11;fontColor=default;shape=connector;" edge="1" parent="1">
          <mxGeometry width="50" height="50" relative="1" as="geometry">
            <mxPoint x="375" y="-38" as="sourcePoint" />
            <mxPoint x="410" y="-60" as="targetPoint" />
          </mxGeometry>
        </mxCell>
        <mxCell id="r5afqF_2VH9w-gvQckAL-70" value="credited to" style="text;html=1;strokeColor=none;fillColor=none;align=center;verticalAlign=middle;whiteSpace=wrap;rounded=0;fontSize=11;fontFamily=Helvetica;fontColor=default;" vertex="1" parent="1">
          <mxGeometry x="-90" y="210" width="60" height="30" as="geometry" />
        </mxCell>
        <mxCell id="r5afqF_2VH9w-gvQckAL-71" value="" style="endArrow=classic;html=1;rounded=0;labelBackgroundColor=default;strokeColor=default;align=center;verticalAlign=middle;fontFamily=Helvetica;fontSize=11;fontColor=default;shape=connector;" edge="1" parent="1">
          <mxGeometry width="50" height="50" relative="1" as="geometry">
            <mxPoint x="-40" y="244" as="sourcePoint" />
            <mxPoint x="-85" y="244" as="targetPoint" />
          </mxGeometry>
        </mxCell>
        <mxCell id="r5afqF_2VH9w-gvQckAL-74" value="spend credits to join paid groups" style="text;html=1;strokeColor=none;fillColor=none;align=center;verticalAlign=middle;whiteSpace=wrap;rounded=0;fontSize=11;fontFamily=Helvetica;fontColor=default;" vertex="1" parent="1">
          <mxGeometry x="-10" y="330" width="120" height="30" as="geometry" />
        </mxCell>
        <mxCell id="r5afqF_2VH9w-gvQckAL-75" value="" style="endArrow=classic;html=1;rounded=0;labelBackgroundColor=default;strokeColor=default;align=center;verticalAlign=middle;fontFamily=Helvetica;fontSize=11;fontColor=default;shape=connector;" edge="1" parent="1">
          <mxGeometry width="50" height="50" relative="1" as="geometry">
            <mxPoint x="17.5" y="364" as="sourcePoint" />
            <mxPoint x="82.5" y="364" as="targetPoint" />
          </mxGeometry>
        </mxCell>
        <mxCell id="r5afqF_2VH9w-gvQckAL-76" value="contains" style="text;html=1;strokeColor=none;fillColor=none;align=center;verticalAlign=middle;whiteSpace=wrap;rounded=0;fontSize=11;fontFamily=Helvetica;fontColor=default;" vertex="1" parent="1">
          <mxGeometry x="330" y="250" width="120" height="30" as="geometry" />
        </mxCell>
        <mxCell id="r5afqF_2VH9w-gvQckAL-77" style="edgeStyle=none;shape=connector;rounded=0;orthogonalLoop=1;jettySize=auto;html=1;exitX=0.5;exitY=0;exitDx=0;exitDy=0;labelBackgroundColor=default;strokeColor=default;align=center;verticalAlign=middle;fontFamily=Helvetica;fontSize=11;fontColor=default;endArrow=classic;" edge="1" parent="1" source="r5afqF_2VH9w-gvQckAL-76" target="r5afqF_2VH9w-gvQckAL-76">
          <mxGeometry relative="1" as="geometry" />
        </mxCell>
        <mxCell id="r5afqF_2VH9w-gvQckAL-78" value="" style="endArrow=classic;html=1;rounded=0;labelBackgroundColor=default;strokeColor=default;align=center;verticalAlign=middle;fontFamily=Helvetica;fontSize=11;fontColor=default;shape=connector;" edge="1" parent="1">
          <mxGeometry width="50" height="50" relative="1" as="geometry">
            <mxPoint x="425" y="250" as="sourcePoint" />
            <mxPoint x="355" y="250" as="targetPoint" />
          </mxGeometry>
        </mxCell>
        <mxCell id="r5afqF_2VH9w-gvQckAL-79" value="" style="endArrow=classic;html=1;rounded=0;labelBackgroundColor=default;strokeColor=default;align=center;verticalAlign=middle;fontFamily=Helvetica;fontSize=11;fontColor=default;shape=connector;" edge="1" parent="1">
          <mxGeometry width="50" height="50" relative="1" as="geometry">
            <mxPoint x="547" y="-2" as="sourcePoint" />
            <mxPoint x="517" y="38" as="targetPoint" />
          </mxGeometry>
        </mxCell>
        <mxCell id="C6tN4GGVLORgmmSrBiky-9" value="adds" style="text;html=1;align=center;verticalAlign=middle;resizable=0;points=[];autosize=1;strokeColor=none;fillColor=none;rotation=-75;" vertex="1" parent="1">
          <mxGeometry x="640.38" y="-20" width="50" height="30" as="geometry" />
        </mxCell>
        <mxCell id="C6tN4GGVLORgmmSrBiky-12" value="" style="endArrow=classic;html=1;rounded=0;labelBackgroundColor=default;strokeColor=default;align=center;verticalAlign=middle;fontFamily=Helvetica;fontSize=11;fontColor=default;shape=connector;" edge="1" parent="1">
          <mxGeometry width="50" height="50" relative="1" as="geometry">
            <mxPoint x="663" y="10" as="sourcePoint" />
            <mxPoint x="653" y="60" as="targetPoint" />
            <Array as="points">
              <mxPoint x="663" y="10" />
            </Array>
          </mxGeometry>
        </mxCell>
        <mxCell id="r5afqF_2VH9w-gvQckAL-81" value="" style="endArrow=classic;html=1;rounded=0;labelBackgroundColor=default;strokeColor=default;align=center;verticalAlign=middle;fontFamily=Helvetica;fontSize=11;fontColor=default;shape=connector;" edge="1" parent="1">
          <mxGeometry width="50" height="50" relative="1" as="geometry">
            <mxPoint x="450" y="-20" as="sourcePoint" />
            <mxPoint x="414" y="20" as="targetPoint" />
          </mxGeometry>
        </mxCell>
        <mxCell id="C6tN4GGVLORgmmSrBiky-14" value="creates" style="text;html=1;align=center;verticalAlign=middle;resizable=0;points=[];autosize=1;strokeColor=none;fillColor=none;rotation=-55;" vertex="1" parent="1">
          <mxGeometry x="529" y="-40" width="60" height="30" as="geometry" />
        </mxCell>
        <mxCell id="r5afqF_2VH9w-gvQckAL-82" value="selects" style="text;html=1;strokeColor=none;fillColor=none;align=center;verticalAlign=middle;whiteSpace=wrap;rounded=0;fontSize=11;fontFamily=Helvetica;fontColor=default;rotation=-5;" vertex="1" parent="1">
          <mxGeometry x="460" y="-260" width="60" height="30" as="geometry" />
        </mxCell>
        <mxCell id="r5afqF_2VH9w-gvQckAL-83" value="" style="endArrow=classic;html=1;rounded=0;labelBackgroundColor=default;strokeColor=default;align=center;verticalAlign=middle;fontFamily=Helvetica;fontSize=11;fontColor=default;shape=connector;" edge="1" parent="1">
          <mxGeometry width="50" height="50" relative="1" as="geometry">
            <mxPoint x="460" y="-240" as="sourcePoint" />
            <mxPoint x="420" y="-230" as="targetPoint" />
          </mxGeometry>
        </mxCell>
        <mxCell id="r5afqF_2VH9w-gvQckAL-84" value="contains" style="text;html=1;strokeColor=none;fillColor=none;align=center;verticalAlign=middle;whiteSpace=wrap;rounded=0;fontSize=11;fontFamily=Helvetica;fontColor=default;" vertex="1" parent="1">
          <mxGeometry x="300" y="175" width="120" height="30" as="geometry" />
        </mxCell>
        <mxCell id="r5afqF_2VH9w-gvQckAL-85" value="contains" style="text;html=1;strokeColor=none;fillColor=none;align=center;verticalAlign=middle;whiteSpace=wrap;rounded=0;fontSize=11;fontFamily=Helvetica;fontColor=default;" vertex="1" parent="1">
          <mxGeometry x="516.38" y="162.25" width="120" height="30" as="geometry" />
        </mxCell>
        <mxCell id="C6tN4GGVLORgmmSrBiky-15" value="contains" style="text;html=1;align=center;verticalAlign=middle;resizable=0;points=[];autosize=1;strokeColor=none;fillColor=none;rotation=-75;" vertex="1" parent="1">
          <mxGeometry x="220" y="-110" width="70" height="30" as="geometry" />
        </mxCell>
        <mxCell id="r5afqF_2VH9w-gvQckAL-86" value="" style="endArrow=classic;html=1;rounded=0;labelBackgroundColor=default;strokeColor=default;align=center;verticalAlign=middle;fontFamily=Helvetica;fontSize=11;fontColor=default;shape=connector;" edge="1" parent="1">
          <mxGeometry width="50" height="50" relative="1" as="geometry">
            <mxPoint x="250" y="-69" as="sourcePoint" />
            <mxPoint x="240" y="-29" as="targetPoint" />
          </mxGeometry>
        </mxCell>
      </root>
    </mxGraphModel>
  </diagram>
</mxfile>
